<svg xmlns="http://www.w3.org/2000/svg" width="1024" height="558" viewBox="0 0 1024 558" version="1.1">
	<path d="M 503.500 51.613 C 474.323 71.644, 430.614 86.202, 386.750 90.498 L 380 91.159 380 147.359 C 380 208.017, 380.574 217.554, 385.469 238.271 C 398.182 292.076, 436.148 334.107, 501.571 366.805 L 511.643 371.839 522.750 366.446 C 597.605 330.105, 637.849 277.303, 642.751 209 C 643.205 202.675, 643.407 173.565, 643.199 144.311 L 642.821 91.122 637.161 90.501 C 590.237 85.356, 552.157 72.689, 520.070 51.553 C 515.434 48.499, 511.609 46.027, 511.570 46.060 C 511.532 46.093, 507.900 48.592, 503.500 51.613 M 498.450 73.918 C 497.928 74.422, 492.725 77.353, 486.889 80.431 C 464.223 92.383, 436.211 100.932, 401.250 106.567 L 398 107.091 398.074 155.795 C 398.115 182.583, 398.509 206.525, 398.949 209 C 399.611 212.718, 399.784 212.979, 399.945 210.500 C 400.116 207.884, 400.251 207.756, 401 209.500 C 401.599 210.893, 401.902 211.045, 402 210 C 402.098 208.955, 402.401 209.107, 403 210.500 C 403.496 211.654, 403.889 191.446, 403.930 162.750 C 403.968 135.387, 404.337 112.998, 404.750 112.996 C 409.192 112.974, 439.043 106.795, 446.287 104.398 C 448.920 103.527, 451.756 103.076, 452.589 103.396 C 453.450 103.726, 453.840 103.550, 453.493 102.989 C 453.157 102.445, 453.021 101.995, 453.191 101.989 C 453.361 101.983, 455.586 101.345, 458.135 100.572 C 462.374 99.285, 462.740 99.307, 462.419 100.832 C 461.589 104.777, 461.270 109.999, 461.860 109.985 C 463.186 109.953, 465.519 108.031, 464.250 108.015 C 462.002 107.988, 462.940 106.003, 465.250 105.900 C 467.348 105.807, 467.365 105.757, 465.500 105.150 C 464.400 104.793, 463.412 104.012, 463.306 103.417 C 463.166 102.639, 464.086 102.638, 466.564 103.414 C 468.463 104.008, 469.563 104.646, 469.008 104.831 C 468.454 105.015, 468 105.517, 468 105.946 C 468 106.374, 471.938 105.227, 476.750 103.396 C 481.563 101.565, 485.958 100.051, 486.517 100.033 C 487.711 99.994, 501.369 73, 500.195 73 C 499.758 73, 498.972 73.413, 498.450 73.918 M 523.934 75.250 C 524.421 76.487, 527.272 82.675, 530.270 89 L 535.721 100.500 541.610 102.302 C 544.850 103.293, 548.063 104.343, 548.750 104.635 C 549.656 105.020, 550 103.767, 550 100.083 C 550 94.842, 550.642 94.203, 554.066 96.035 C 555.609 96.861, 556 98.155, 556 102.432 L 556 107.793 563.250 112.312 C 585.168 125.974, 602 155.493, 602 180.271 C 602 190.064, 598.145 209.123, 594.961 215.073 C 594.088 216.703, 600.949 233, 602.508 233 C 602.736 233, 602.890 229.186, 602.851 224.523 C 602.784 216.369, 602.705 216.087, 600.783 217.116 C 598.123 218.540, 596.120 216.765, 597.928 214.586 C 598.613 213.762, 598.882 212.618, 598.527 212.044 C 598.172 211.470, 598.359 211, 598.941 211 C 599.523 211, 600.032 210.213, 600.070 209.250 C 600.131 207.733, 600.242 207.759, 600.902 209.446 C 602.548 213.653, 602.973 205.852, 602.986 171.143 C 602.998 141.700, 602.772 135.874, 601.637 136.309 C 600.158 136.876, 596 130.426, 596 127.564 C 596 117.213, 610.371 114.746, 614.563 124.378 C 615.605 126.773, 615.931 127.023, 615.961 125.450 C 615.982 124.322, 616.538 122.862, 617.196 122.204 C 618.125 121.275, 617.978 120.705, 616.543 119.655 C 615.428 118.840, 615.001 117.807, 615.468 117.052 C 616.082 116.059, 615.779 116.048, 614 117 C 612.497 117.805, 611.984 117.835, 612.443 117.093 C 612.819 116.484, 612.344 115.685, 611.386 115.318 C 609.159 114.463, 611.935 113.181, 616.250 113.070 L 619 113 619 124.122 C 619 133.997, 618.828 135.102, 617.469 133.974 C 615.729 132.530, 614.019 134.109, 611.487 139.500 C 610.363 141.893, 610.058 142.095, 609.976 140.500 C 609.877 138.582, 609.838 138.587, 609.015 140.625 C 608.543 141.793, 608.341 147.868, 608.566 154.125 C 608.790 160.381, 609.164 174.112, 609.396 184.639 C 609.629 195.165, 610.374 207.219, 611.052 211.424 C 612.173 218.369, 612.128 219.186, 610.561 220.331 C 609.132 221.377, 609.006 222.182, 609.828 225.046 C 610.471 227.286, 610.876 227.797, 610.980 226.500 C 611.136 224.558, 611.162 224.556, 611.895 226.427 C 612.315 227.497, 613.186 218.385, 613.856 205.927 C 614.519 193.592, 615.734 176.300, 616.557 167.500 C 617.379 158.700, 618.198 148.350, 618.375 144.500 C 618.553 140.650, 618.613 155.500, 618.509 177.500 L 618.320 217.500 614.698 231 C 612.706 238.425, 610.781 245.513, 610.421 246.750 C 610.006 248.179, 610.196 249, 610.942 249 C 611.589 249, 611.906 249.343, 611.647 249.763 C 611.388 250.182, 611.728 251.557, 612.402 252.817 L 613.629 255.110 614.752 252.645 C 615.460 251.091, 615.560 249.130, 615.024 247.340 C 614.552 245.767, 614.134 245.280, 614.086 246.250 C 614.039 247.213, 613.498 248, 612.883 248 C 612.213 248, 612.008 247.100, 612.370 245.750 C 612.701 244.513, 612.979 243.215, 612.986 242.867 C 612.994 242.518, 613.913 241.994, 615.029 241.703 C 616.864 241.223, 617.003 241.522, 616.484 244.836 C 615.354 252.037, 619.980 238.002, 622.693 226 C 625.279 214.556, 625.294 214.239, 625.728 160.847 L 626.164 107.195 623.332 106.651 C 621.774 106.352, 618.475 105.826, 616 105.482 C 587.691 101.553, 550.118 89.004, 530.232 76.835 C 522.890 72.342, 522.780 72.315, 523.934 75.250 M 511 77.936 C 511 79.506, 477.288 148.356, 436.110 230.883 C 425.405 252.339, 421.123 261.889, 421.540 263.383 C 421.974 264.936, 421.874 265.128, 421.166 264.104 C 420.408 263.007, 419.844 263.401, 418.527 265.947 C 417.606 267.729, 417.111 269.444, 417.426 269.760 C 417.742 270.075, 418 269.808, 418 269.167 C 418 268.525, 418.632 268, 419.405 268 C 421.044 268, 424.547 262.293, 431.121 248.917 C 433.711 243.647, 437.796 235.772, 440.199 231.417 C 442.602 227.063, 445.202 221.925, 445.976 220 C 448.864 212.820, 452.053 208.910, 453.689 210.546 C 454.499 211.356, 455.575 211.763, 456.081 211.450 C 456.586 211.138, 457.061 212.146, 457.136 213.691 C 457.251 216.049, 457.342 216.139, 457.706 214.250 C 458.234 211.508, 460 211.252, 460 213.917 C 460 214.971, 460.434 215.983, 460.964 216.167 C 461.906 216.493, 453.299 235.732, 444.339 253.326 C 441.867 258.181, 440.099 262.817, 440.411 263.628 C 440.722 264.440, 440.579 264.858, 440.093 264.558 C 439.607 264.257, 438.943 264.707, 438.616 265.558 C 438.276 266.443, 438.445 266.843, 439.011 266.493 C 440.395 265.638, 440.249 267.351, 438.817 268.783 C 438.166 269.434, 437.904 270.238, 438.236 270.569 C 439.090 271.424, 444.646 261.008, 459 231.644 L 471.500 206.071 504.750 206.036 C 523.038 206.016, 538 205.777, 538 205.505 C 538 205.233, 535.914 200.516, 533.364 195.023 L 528.729 185.036 505.523 184.768 L 482.317 184.500 497.106 154.686 L 511.896 124.872 521.082 143.686 C 531.106 164.215, 551.050 204.356, 551.417 204.740 C 551.543 204.872, 553.414 201.631, 555.573 197.538 C 559.271 190.529, 559.713 190.079, 563.165 189.798 L 566.829 189.500 546.824 149 C 524.770 104.354, 515.900 86.090, 513.613 80.617 C 512.165 77.149, 511 75.955, 511 77.936 M 482.500 91 C 482.160 91.550, 482.359 92, 482.941 92 C 483.523 92, 484 91.550, 484 91 C 484 90.450, 483.802 90, 483.559 90 C 483.316 90, 482.840 90.450, 482.500 91 M 579.150 112.534 C 578.951 118.765, 579.252 120.505, 580.889 122.586 C 583.917 126.435, 584.064 126.164, 584.375 116.196 C 584.627 108.141, 584.428 106.764, 582.899 105.946 C 579.750 104.261, 579.394 104.887, 579.150 112.534 M 442.813 107.683 C 443.534 107.972, 444.397 107.936, 444.729 107.604 C 445.061 107.272, 444.471 107.036, 443.417 107.079 C 442.252 107.127, 442.015 107.364, 442.813 107.683 M 452.065 108.422 C 451.205 109.458, 451.197 110.004, 452.033 110.520 C 452.764 110.972, 452.180 111.975, 450.381 113.359 C 446.844 116.081, 444.380 118.578, 440 123.879 C 438.075 126.208, 434.635 130.154, 432.356 132.646 C 429.765 135.481, 427.048 140.124, 425.106 145.039 C 422.138 152.550, 420.877 158.321, 422.904 155.122 C 423.384 154.364, 424.234 154.027, 424.794 154.372 C 425.360 154.722, 427.145 152.150, 428.819 148.573 C 433.472 138.630, 439.591 130.274, 448.940 121.097 C 453.648 116.475, 456.938 113.014, 456.250 113.406 C 455.370 113.908, 455 113.231, 455 111.118 C 455 107.614, 453.715 106.434, 452.065 108.422 M 433.500 109 L 431.500 109.859 433.500 109.914 C 434.600 109.945, 436.175 109.533, 437 109 C 438.988 107.715, 436.490 107.715, 433.500 109 M 598 110.878 C 598 111.360, 598.761 112.373, 599.692 113.128 C 601.093 114.264, 601.244 114.267, 600.567 113.143 C 599.942 112.105, 600.250 111.945, 601.875 112.460 C 603.044 112.831, 604 112.707, 604 112.184 C 604 111.661, 602.987 110.962, 601.750 110.630 C 598.680 109.808, 598 109.852, 598 110.878 M 471.576 118.272 C 445.610 132.127, 429.248 163.552, 432.888 192.581 C 434.779 207.663, 433.242 209.628, 458.280 160.128 C 470.776 135.424, 481 114.939, 481 114.606 C 481 113.463, 479.487 114.052, 471.576 118.272 M 554.671 139.157 L 567.500 164.500 577.500 164.148 C 583 163.955, 587.640 163.665, 587.810 163.505 C 587.981 163.344, 586.832 159.902, 585.256 155.856 C 579.178 140.246, 567.986 127.288, 553.571 119.170 C 540.403 111.754, 540.355 110.878, 554.671 139.157 M 613.813 114.683 C 614.534 114.972, 615.397 114.936, 615.729 114.604 C 616.061 114.272, 615.471 114.036, 614.417 114.079 C 613.252 114.127, 613.015 114.364, 613.813 114.683 M 412.032 153.389 C 412.058 179.160, 412.316 184.833, 413.532 186.441 C 415.075 188.481, 415.320 188.091, 415.066 184 C 414.942 182.001, 415.117 181.801, 415.940 183 C 416.656 184.044, 416.974 175.180, 416.985 153.867 L 417 123.233 414.500 122.755 L 412 122.277 412.032 153.389 M 429.589 124.371 C 430.384 126.443, 427.214 127.194, 426.057 125.208 C 425.129 123.616, 425.059 123.621, 425.030 125.281 C 424.991 127.582, 427.601 128.576, 429.513 126.989 C 431.180 125.605, 431.519 123, 430.031 123 C 429.499 123, 429.300 123.617, 429.589 124.371 M 603.152 124.885 C 601.417 125.984, 602.005 128.974, 604.231 130.376 C 606.623 131.882, 609.471 129.061, 608.535 126.112 C 607.842 123.928, 605.502 123.395, 603.152 124.885 M 423.624 157.539 C 423.281 158.432, 423.039 159.914, 423.086 160.832 C 423.133 161.749, 423.568 161.173, 424.053 159.550 C 424.996 156.394, 424.662 154.832, 423.624 157.539 M 413.158 182 C 413.158 183.375, 413.385 183.938, 413.662 183.250 C 413.940 182.563, 413.940 181.438, 413.662 180.750 C 413.385 180.063, 413.158 180.625, 413.158 182 M 399.328 198.500 C 399.333 202.350, 399.513 203.802, 399.730 201.728 C 399.946 199.653, 399.943 196.503, 399.722 194.728 C 399.501 192.952, 399.324 194.650, 399.328 198.500 M 437.459 193.067 C 437.096 193.653, 437.014 194.348, 437.276 194.610 C 437.538 194.872, 438.019 194.392, 438.345 193.543 C 439.021 191.781, 438.445 191.471, 437.459 193.067 M 401 199 C 401 199.550, 401.450 200, 402 200 C 402.550 200, 403 199.550, 403 199 C 403 198.450, 402.550 198, 402 198 C 401.450 198, 401 198.450, 401 199 M 561.412 210.587 C 554.071 223.139, 540.086 233.764, 525.955 237.525 C 511.069 241.486, 490.205 237.496, 478.292 228.409 C 473.562 224.802, 473.844 228.035, 478.629 232.281 C 491.445 243.650, 519.097 246.425, 537.133 238.154 C 541.915 235.961, 553.301 228.270, 553.833 226.875 C 554.017 226.394, 554.767 226, 555.500 226 C 556.233 226, 557.060 225.438, 557.338 224.750 C 557.658 223.957, 557.871 224.097, 557.921 225.133 C 557.966 226.053, 559.103 226.978, 560.524 227.249 C 563.367 227.793, 564.829 226.532, 562.425 225.610 C 561.388 225.212, 561.076 224.336, 561.498 223.005 C 561.855 221.881, 561.681 221, 561.101 221 C 559.974 221, 563.324 214.806, 565.370 213.108 C 567.039 211.723, 571.135 214.485, 570.370 216.479 C 569.402 219.001, 571.141 220.528, 572.642 218.474 C 573.378 217.469, 574.260 216.927, 574.604 217.271 C 575.412 218.079, 571.109 227, 569.911 227 C 569.410 227, 569 227.492, 569 228.092 C 569 229.569, 565.399 234.066, 564.742 233.409 C 564.454 233.121, 563.624 234.229, 562.897 235.870 C 562.170 237.512, 561.226 238.640, 560.799 238.376 C 560.372 238.112, 560.278 238.562, 560.590 239.375 C 561.024 240.504, 560.607 240.718, 558.829 240.279 C 557.548 239.963, 556.843 240.077, 557.262 240.531 C 557.681 240.986, 555.881 242.620, 553.262 244.162 C 550.643 245.704, 548.906 246.974, 549.403 246.983 C 549.900 246.992, 549.265 247.903, 547.993 249.006 C 543.751 252.685, 546.596 252.060, 553.033 247.900 C 567.778 238.370, 582.225 219.993, 585.382 206.750 L 586.038 204 575.651 204 L 565.264 204 561.412 210.587 M 577.079 214.583 C 577.127 215.748, 577.364 215.985, 577.683 215.188 C 577.972 214.466, 577.936 213.603, 577.604 213.271 C 577.272 212.939, 577.036 213.529, 577.079 214.583 M 564 219.059 C 564 219.641, 564.518 219.798, 565.152 219.406 C 565.785 219.015, 566.910 219.524, 567.652 220.538 C 568.934 222.291, 569 222.274, 569 220.191 C 569 218.521, 568.406 218, 566.500 218 C 565.125 218, 564 218.477, 564 219.059 M 565 221.378 C 565 221.585, 565.685 222.324, 566.523 223.019 C 567.796 224.076, 567.943 224.014, 567.416 222.641 C 566.878 221.240, 565 220.257, 565 221.378 M 586 231.923 C 586 232.431, 584.833 234.233, 583.408 235.927 C 581.907 237.710, 581.454 238.763, 582.330 238.427 C 583.164 238.107, 584.102 237.177, 584.416 236.359 C 584.731 235.538, 585.505 235.194, 586.147 235.591 C 586.919 236.068, 587.037 235.869, 586.500 235 C 585.949 234.108, 586.080 233.932, 586.914 234.447 C 587.586 234.862, 587.895 235.832, 587.600 236.601 C 587.290 237.408, 587.684 238, 588.531 238 C 589.339 238, 590 238.477, 590 239.059 C 590 239.641, 589.569 239.851, 589.041 239.526 C 587.781 238.747, 590.852 245.617, 596.567 256.358 C 599.099 261.118, 601.550 264.778, 602.013 264.492 C 602.477 264.205, 603.131 264.837, 603.467 265.895 C 603.803 266.953, 604.757 268.383, 605.587 269.072 C 606.418 269.761, 602.688 261.498, 597.298 250.709 C 588.531 233.157, 586 228.948, 586 231.923 M 404.079 236.583 C 404.127 237.748, 404.364 237.985, 404.683 237.188 C 404.972 236.466, 404.936 235.603, 404.604 235.271 C 404.272 234.939, 404.036 235.529, 404.079 236.583 M 577.924 242.750 L 575.500 245.500 578.250 243.076 C 579.763 241.742, 581 240.505, 581 240.326 C 581 239.541, 580.190 240.180, 577.924 242.750 M 467.500 243 C 466.720 244.261, 467.603 245.717, 469.889 246.941 C 471.171 247.627, 471.667 247.528, 471.667 246.585 C 471.667 245.866, 470.954 245.328, 470.083 245.389 C 469.101 245.458, 468.612 244.836, 468.794 243.750 C 469.118 241.821, 468.463 241.442, 467.500 243 M 573.500 247 C 573.160 247.550, 573.332 248, 573.882 248 C 574.432 248, 575.160 247.550, 575.500 247 C 575.840 246.450, 575.668 246, 575.118 246 C 574.568 246, 573.840 246.450, 573.500 247 M 613.257 251.237 C 613.125 252.996, 613.290 253.156, 614.029 251.987 C 615.185 250.159, 615.256 249, 614.213 249 C 613.780 249, 613.350 250.007, 613.257 251.237 M 481 253 C 481.825 253.533, 482.950 253.969, 483.500 253.969 C 484.050 253.969, 483.825 253.533, 483 253 C 482.175 252.467, 481.050 252.031, 480.500 252.031 C 479.950 252.031, 480.175 252.467, 481 253 M 541.507 252.989 C 541.157 253.555, 541.558 253.723, 542.448 253.382 C 544.180 252.717, 544.497 252, 543.059 252 C 542.541 252, 541.843 252.445, 541.507 252.989 M 577.030 255.216 C 576.969 256.665, 580.398 263, 581.244 263 C 581.725 263, 581.797 263.520, 581.405 264.155 C 580.958 264.876, 581.131 265.037, 581.864 264.584 C 582.714 264.058, 582.524 263.124, 581.171 261.180 C 580.145 259.706, 578.800 257.600, 578.183 256.500 C 577.566 255.400, 577.047 254.822, 577.030 255.216 M 561.758 256.575 C 561.442 256.892, 561.522 258.354, 561.937 259.825 C 562.353 261.296, 562.502 263.175, 562.270 264 C 562.018 264.894, 562.182 265.096, 562.674 264.500 C 564.082 262.795, 565.818 262.979, 565.350 264.784 C 565.105 265.728, 565.586 267.400, 566.420 268.500 C 569.060 271.982, 568.408 266.738, 565.483 260.967 C 562.871 255.812, 562.711 255.623, 561.758 256.575 M 423.459 259.067 C 423.096 259.653, 423.014 260.348, 423.276 260.610 C 423.538 260.872, 424.019 260.392, 424.345 259.543 C 425.021 257.781, 424.445 257.471, 423.459 259.067 M 522.750 258.662 C 523.438 258.940, 524.563 258.940, 525.250 258.662 C 525.938 258.385, 525.375 258.158, 524 258.158 C 522.625 258.158, 522.063 258.385, 522.750 258.662 M 563 261 C 563 261.550, 563.477 262, 564.059 262 C 564.641 262, 564.840 261.550, 564.500 261 C 564.160 260.450, 563.684 260, 563.441 260 C 563.198 260, 563 260.450, 563 261 M 542.598 266.455 L 536.696 268.678 536.918 277.075 C 537.207 288.023, 538 288.733, 538 278.044 C 538 270.392, 538.130 269.861, 539.687 271.128 C 541.162 272.327, 541.293 272.283, 540.731 270.782 C 540.377 269.837, 540.518 268.798, 541.044 268.473 C 541.570 268.148, 542 268.359, 542 268.941 C 542 270.827, 544.846 270.061, 545.500 268 C 546.669 264.318, 549 265.651, 549 270 C 549 272.200, 548.598 274, 548.107 274 C 547.616 274, 546.936 274.725, 546.596 275.611 C 546.129 276.827, 546.410 277.069, 547.739 276.598 C 548.932 276.175, 548.761 276.554, 547.205 277.775 C 545.943 278.766, 545.231 279.898, 545.624 280.290 C 546.016 280.683, 547.162 280.259, 548.169 279.347 C 550.030 277.663, 551.011 263.844, 549.250 264.116 C 548.837 264.179, 545.844 265.232, 542.598 266.455 M 583.564 269.293 C 583.940 270.279, 584.499 270.834, 584.807 270.526 C 585.115 270.219, 584.808 269.412, 584.124 268.733 C 583.136 267.753, 583.022 267.868, 583.564 269.293 M 529.809 270.750 C 529.639 271.163, 529.741 279.600, 530.035 289.500 L 530.570 307.500 530.785 288.750 C 530.979 271.869, 530.789 268.372, 529.809 270.750 M 524.750 271.662 C 525.438 271.940, 526.563 271.940, 527.250 271.662 C 527.938 271.385, 527.375 271.158, 526 271.158 C 524.625 271.158, 524.063 271.385, 524.750 271.662 M 437 272.892 C 437 273.566, 436.573 273.854, 436.050 273.531 C 435.528 273.208, 434.583 273.911, 433.950 275.093 C 433.154 276.582, 433.138 277.033, 433.900 276.562 C 435.153 275.788, 435.255 276.172, 434.395 278.412 C 434.063 279.279, 433.318 279.697, 432.741 279.340 C 432.138 278.967, 431.987 279.169, 432.385 279.814 C 432.767 280.432, 432.182 282.639, 431.084 284.719 C 429.986 286.799, 429.069 287.905, 429.044 287.179 C 428.999 285.828, 426.144 282.463, 425.609 283.131 C 425.447 283.334, 426.342 284.990, 427.598 286.811 L 429.883 290.123 434.054 281.507 C 436.347 276.768, 437.949 272.615, 437.612 272.279 C 437.275 271.942, 437 272.218, 437 272.892 M 514 273.441 C 514 274.234, 514.450 275.160, 515 275.500 C 515.550 275.840, 516 275.390, 516 274.500 C 516 273.610, 516.450 273.160, 517 273.500 C 517.550 273.840, 518 273.641, 518 273.059 C 518 272.477, 517.100 272, 516 272 C 514.900 272, 514 272.648, 514 273.441 M 571.386 276.684 C 571.449 278.339, 572.056 279.664, 572.750 279.665 C 574.301 279.667, 574.278 279.130, 572.601 276.103 L 571.272 273.706 571.386 276.684 M 589.727 281.500 C 593.897 289.927, 594.113 290.079, 596.444 286.250 C 598.110 283.514, 598.109 283.511, 596.222 285.660 L 594.325 287.820 592.605 284.908 C 591.659 283.306, 591.128 281.601, 591.426 281.119 C 592.263 279.765, 589.031 274, 587.435 274 C 586.414 274, 587.056 276.102, 589.727 281.500 M 599.100 281.295 C 597.835 283.402, 597.857 283.423, 599.579 281.774 C 600.570 280.824, 601.166 279.832, 600.903 279.569 C 600.640 279.306, 599.829 280.083, 599.100 281.295 M 522.340 281.557 C 522.011 282.414, 521.125 282.878, 520.371 282.589 C 518.399 281.832, 518.662 282.690, 521.569 286.502 C 522.982 288.354, 524.516 291.137, 524.977 292.685 C 525.692 295.083, 525.799 294.804, 525.693 290.806 C 525.596 287.104, 525.298 286.337, 524.285 287.178 C 523.379 287.930, 523 287.931, 523 287.181 C 523 286.597, 523.450 285.840, 524 285.500 C 524.550 285.160, 524.986 284.346, 524.968 283.691 C 524.951 283.036, 524.276 283.374, 523.468 284.441 C 521.789 286.662, 521.475 284.849, 523.035 281.934 C 523.605 280.870, 523.815 280, 523.504 280 C 523.192 280, 522.668 280.701, 522.340 281.557 M 543.564 281.293 C 543.940 282.279, 544.499 282.834, 544.807 282.526 C 545.115 282.219, 544.808 281.412, 544.124 280.733 C 543.136 279.753, 543.022 279.868, 543.564 281.293 M 571.750 282.332 C 571.337 283.339, 571.041 286.039, 571.090 288.332 L 571.180 292.500 572.146 289.144 C 573.304 285.120, 572.969 279.355, 571.750 282.332 M 575.047 283.750 C 575.021 284.988, 575.395 286, 575.879 286 C 576.362 286, 577.323 287.364, 578.013 289.032 C 578.704 290.700, 579.465 291.869, 579.703 291.630 C 579.942 291.391, 579.003 289.014, 577.615 286.348 C 575.725 282.714, 575.081 282.063, 575.047 283.750 M 563.272 288 C 563.272 290.475, 563.467 291.488, 563.706 290.250 C 563.944 289.012, 563.944 286.988, 563.706 285.750 C 563.467 284.512, 563.272 285.525, 563.272 288 M 514.235 289.399 C 514.387 292.905, 514.656 293.569, 515.381 292.238 C 515.903 291.282, 516.664 290.274, 517.074 289.997 C 517.483 289.720, 516.967 288.443, 515.927 287.158 L 514.036 284.822 514.235 289.399 M 554.680 286.886 C 555.330 289.369, 553.358 290.507, 551.206 288.891 C 549.600 287.684, 549.599 287.718, 551.200 289.469 C 552.612 291.013, 553.162 291.110, 554.450 290.042 C 556.172 288.613, 556.486 286.419, 555.093 285.558 C 554.595 285.249, 554.409 285.847, 554.680 286.886 M 469.079 292.583 C 469.127 293.748, 469.364 293.985, 469.683 293.188 C 469.972 292.466, 469.936 291.603, 469.604 291.271 C 469.272 290.939, 469.036 291.529, 469.079 292.583 M 518.031 291.500 C 518.031 292.050, 518.467 293.175, 519 294 C 519.533 294.825, 519.969 295.050, 519.969 294.500 C 519.969 293.950, 519.533 292.825, 519 292 C 518.467 291.175, 518.031 290.950, 518.031 291.500 M 580.419 293.869 C 580.843 294.556, 579.448 297.076, 577.073 299.912 C 574.833 302.588, 573 305.123, 573 305.544 C 573 305.966, 574.027 305.116, 575.282 303.656 C 578.637 299.751, 579.254 300.464, 578.069 306.872 C 578.031 307.077, 577.212 306.627, 576.250 305.872 C 574.684 304.644, 574.637 304.675, 575.799 306.162 C 576.920 307.596, 576.647 308.157, 573.799 310.264 C 568.698 314.038, 567.253 314.631, 569.500 312.026 L 571.500 309.709 569 310.984 C 566.615 312.201, 566.638 312.107, 569.500 308.942 L 572.500 305.625 568.500 308.702 C 566.300 310.394, 562.475 313.638, 560 315.912 L 555.500 320.045 559.389 317.962 C 562.257 316.425, 563.570 316.172, 564.389 316.998 C 565.206 317.822, 565.103 318.014, 564 317.723 C 563.175 317.506, 562.889 317.534, 563.364 317.785 C 563.839 318.037, 562.939 319.349, 561.364 320.701 C 559.718 322.114, 560.596 321.744, 563.429 319.830 C 566.140 317.998, 572.132 312.900, 576.745 308.500 L 585.131 300.500 583.502 297.270 C 582.606 295.493, 581.382 293.736, 580.782 293.365 C 580.121 292.957, 579.978 293.155, 580.419 293.869 M 500.083 298.283 C 500.313 298.439, 501.400 299.226, 502.500 300.033 C 504.350 301.390, 504.397 301.369, 503.128 299.750 C 502.373 298.788, 501.285 298, 500.711 298 C 500.137 298, 499.854 298.127, 500.083 298.283 M 565.500 315 C 565.840 315.550, 566.568 316, 567.118 316 C 567.668 316, 567.840 315.550, 567.500 315 C 567.160 314.450, 566.432 314, 565.882 314 C 565.332 314, 565.160 314.450, 565.500 315 M 547.861 330.056 C 545.624 332.005, 545.615 332.057, 547.694 331.051 C 548.901 330.467, 550.165 329.542, 550.503 328.995 C 551.486 327.404, 550.409 327.837, 547.861 330.056 M 709 388 C 709 388.550, 709.675 389, 710.500 389 C 711.633 389, 712 390.222, 712 394 C 712 397.778, 712.367 399, 713.500 399 C 714.633 399, 715 397.778, 715 394 C 715 390.222, 715.367 389, 716.500 389 C 717.325 389, 718 388.550, 718 388 C 718 387.450, 715.975 387, 713.500 387 C 711.025 387, 709 387.450, 709 388 M 720 393 C 720 396.333, 720.444 399, 721 399 C 721.550 399, 722 397.650, 722 396 C 722 392.601, 723.543 391.984, 724.500 395 C 725.344 397.660, 727.435 397.538, 728.780 394.750 C 729.797 392.640, 729.869 392.707, 729.932 395.833 C 730.036 400.929, 732.473 399.227, 732.634 393.946 C 732.871 386.145, 731.497 385.068, 728.345 390.584 L 726.297 394.168 724.182 390.584 C 721.141 385.429, 720 386.088, 720 393 M 520 393.936 C 503.302 395.646, 500.535 399.422, 500.514 420.530 C 500.490 444.800, 502.999 447.252, 528.471 447.846 C 554.899 448.463, 562 444.882, 562 430.935 L 562 427 554.519 427 C 547.355 427, 547.011 427.107, 546.405 429.523 C 545.280 434.006, 542.525 435, 531.232 435 C 517.147 435, 516 433.953, 516 421.101 C 516 407.719, 517.278 406.500, 531.307 406.500 C 542.108 406.500, 546 407.866, 546 411.655 C 546 412.671, 547.978 413, 554.079 413 L 562.159 413 561.579 410 C 561.261 408.350, 560.753 405.713, 560.451 404.141 C 559.817 400.835, 555.734 396.593, 551.728 395.080 C 547.981 393.664, 529.244 392.989, 520 393.936 M 663.377 393.913 C 649.271 395.663, 645.813 400.274, 645.175 418.186 C 644.256 443.962, 648.674 448.040, 677.432 447.956 C 696.869 447.900, 701.456 446.570, 704.750 440.038 C 706.050 437.460, 707 433.748, 707 431.246 L 707 426.916 699.250 427.208 C 692.087 427.478, 691.476 427.670, 691.182 429.741 C 690.592 433.888, 687.432 435, 676.232 435 C 662.266 435, 661 433.886, 661 421.593 C 661 416.918, 661.523 411.946, 662.163 410.542 C 665.229 403.813, 691 404.808, 691 411.655 C 691 412.664, 692.904 413, 698.624 413 L 706.248 413 705.791 407.492 C 705.284 401.382, 702.747 397.701, 697.500 395.462 C 693.801 393.884, 671.695 392.880, 663.377 393.913 M 329.125 419.941 C 321.906 434.208, 316 446.376, 316 446.981 C 316 447.715, 318.739 447.984, 324.238 447.790 L 332.476 447.500 334.729 442.750 L 336.981 438 352.473 438 L 367.966 438 370.500 443 L 373.034 448 381.600 448 C 386.791 448, 390.035 447.611, 389.833 447.014 C 389.650 446.471, 383.425 434.328, 376 420.030 L 362.500 394.032 352.375 394.016 L 342.251 394 329.125 419.941 M 396 421 L 396 448 420.500 448 L 445 448 445 441.524 L 445 435.048 428.381 434.774 L 411.763 434.500 411.935 414.250 L 412.107 394 404.053 394 L 396 394 396 421 M 453 421 L 453 448 460.500 448 L 468 448 468 421 L 468 394 460.500 394 L 453 394 453 421 M 570.500 420.751 L 570.500 447.500 578.228 447.792 L 585.957 448.083 586.228 429.228 L 586.500 410.373 600.117 428.937 L 613.734 447.500 624.867 447.663 L 636 447.827 636 420.913 L 636 394 628.500 394 L 621 394 620.968 412.750 L 620.937 431.500 618.718 428.881 C 617.498 427.441, 611.117 419.003, 604.537 410.131 L 592.574 394 581.537 394.001 L 570.500 394.001 570.500 420.751 M 347.222 416.188 C 344.870 421.188, 343.125 425.458, 343.345 425.678 C 343.565 425.898, 347.818 425.948, 352.796 425.789 L 361.847 425.500 357.306 416.250 C 354.808 411.163, 352.480 407.022, 352.132 407.050 C 351.785 407.077, 349.575 411.189, 347.222 416.188 M 368 477.500 L 368 492 372 492 L 376 492 376 488 L 376 484 384.865 484 C 396.851 484, 399 482.462, 399 473.882 C 399 464.025, 397.309 463, 381.045 463 L 368 463 368 477.500 M 409.414 476.688 C 405.611 484.216, 402.350 490.741, 402.167 491.188 C 401.983 491.635, 403.824 492, 406.256 492 C 410.003 492, 410.853 491.618, 411.818 489.500 C 412.904 487.117, 413.358 487, 421.500 487 C 429.642 487, 430.096 487.117, 431.182 489.500 C 432.142 491.608, 433.002 492, 436.661 492 C 439.047 492, 441 491.727, 441 491.392 C 441 491.058, 437.794 484.533, 433.874 476.892 L 426.749 463 421.538 463 L 416.328 463 409.414 476.688 M 448 477.500 L 448 492 452 492 L 456 492 456 486.500 C 456 481.439, 456.182 481, 458.284 481 C 459.728 481, 462.567 483.024, 466 486.500 C 471.278 491.844, 471.588 492, 476.942 492 L 482.453 492 474.733 484.234 L 467.013 476.469 473.747 469.734 L 480.481 463 475.297 463 C 470.311 463, 469.915 463.210, 464.912 468.500 C 462.051 471.525, 458.875 474, 457.855 474 C 456.273 474, 456 473.190, 456 468.500 L 456 463 452 463 L 448 463 448 477.500 M 489 477.500 L 489 492 493 492 L 497 492 497 477.500 L 497 463 493 463 L 489 463 489 477.500 M 508.455 465.455 C 506.760 467.149, 506 469.021, 506 471.500 C 506 477.635, 509.386 479.997, 518.205 480.014 C 527.265 480.031, 530 480.725, 530 483.010 C 530 486.672, 517.244 487.475, 514.268 484 C 511.665 480.960, 506 481.227, 506 484.389 C 506 490.002, 508.849 491.469, 520.478 491.843 C 533.160 492.251, 536.568 491.223, 537.844 486.604 C 540.373 477.445, 536.657 474, 524.250 474 C 516.351 474, 513.683 472.990, 514.685 470.378 C 515.451 468.382, 527.624 468.481, 529.643 470.500 C 530.468 471.325, 532.461 472, 534.071 472 C 536.646 472, 537 471.644, 537 469.057 C 537 464.131, 534.149 463, 521.732 463 C 511.574 463, 510.758 463.151, 508.455 465.455 M 544 466.500 L 544 470 550 470 L 556 470 556 481 L 556 492 560 492 L 564 492 564 481 L 564 470 569.500 470 L 575 470 575 466.500 L 575 463 559.500 463 L 544 463 544 466.500 M 583.007 476.987 C 579.153 484.679, 576 491.204, 576 491.487 C 576 491.769, 577.953 492, 580.339 492 C 583.998 492, 584.858 491.608, 585.818 489.500 C 586.901 487.123, 587.370 487, 595.318 487 C 603.266 487, 603.735 487.123, 604.818 489.500 C 605.793 491.640, 606.621 492, 610.562 492 C 613.095 492, 615.017 491.663, 614.833 491.250 C 614.650 490.837, 611.350 484.314, 607.500 476.754 L 600.500 463.008 595.257 463.004 L 590.013 463 583.007 476.987 M 621 477.500 L 621 492 625 492 L 629 492 629.032 481.750 C 629.060 472.535, 629.210 471.702, 630.515 473.500 C 631.313 474.600, 634.787 479.213, 638.233 483.752 L 644.500 492.003 650 491.752 L 655.500 491.500 655.777 477.250 L 656.055 463 651.391 463 L 646.727 463 647.224 472.500 C 647.498 477.725, 647.447 481.974, 647.111 481.942 C 646.775 481.909, 643.429 477.634, 639.676 472.442 L 632.853 463 626.926 463 L 621 463 621 477.500 M 376.708 470.626 C 376.318 471.015, 376 472.628, 376 474.210 L 376 477.088 383.250 476.794 L 390.500 476.500 390.500 473.500 C 390.500 470.502, 390.496 470.500, 383.958 470.209 C 380.359 470.049, 377.097 470.237, 376.708 470.626 M 419.132 474.435 C 417.959 477.086, 417 479.422, 417 479.627 C 417 479.832, 419.025 480, 421.500 480 C 426.674 480, 426.682 479.977, 423.587 474.058 L 421.263 469.616 419.132 474.435 M 592.592 474.819 L 589.966 480 594.997 480 L 600.027 480 598.568 476.509 C 595.521 469.215, 595.442 469.193, 592.592 474.819" stroke="none" fill="currentColor" fill-rule="evenodd"/>
</svg>