<svg xmlns="http://www.w3.org/2000/svg" width="150" height="150" viewBox="0 0 150 150" version="1.1">
	<path d="M 63.174 9.291 C 61.618 11.165, 63.572 15.198, 67.220 17.642 L 69.994 19.500 69.774 36 L 69.555 52.500 69.252 36.750 L 68.949 21 63.475 21 L 58 21 58 41.050 C 58 61.813, 58.694 65.901, 62.463 67.347 C 63.360 67.692, 64 69.153, 64 70.856 C 64 72.484, 65.437 75.924, 67.250 78.637 C 70.203 83.056, 70.895 83.528, 74.824 83.811 C 77.264 83.987, 79.803 83.578, 80.652 82.874 C 82.740 81.141, 87 72.504, 87 70.002 C 87 68.866, 87.692 67.672, 88.537 67.347 C 92.306 65.901, 93 61.813, 93 41.050 L 93 21 89.404 21 L 85.809 21 86.154 14.750 C 86.469 9.051, 86.324 8.500, 84.500 8.500 C 82.676 8.500, 82.531 9.051, 82.846 14.750 C 83.186 20.900, 83.150 21, 80.596 21 C 78.667 21, 78 21.514, 78 23 C 78 24.467, 78.667 25, 80.500 25 L 83 25 83 35.566 C 83 41.489, 82.505 47.056, 81.873 48.237 C 80.961 49.942, 81.074 50.581, 82.471 51.602 C 86.181 54.315, 86.674 52.574, 86.196 38.460 C 85.865 28.705, 86.056 25, 86.891 25 C 87.730 25, 87.969 30.232, 87.772 44.250 L 87.500 63.500 75.500 63.500 L 63.500 63.500 63.463 44 C 63.427 25.038, 63.434 24.964, 63.737 41.323 C 64.078 59.717, 64.968 63, 69.615 63 C 71.611 63, 72 62.499, 72 59.929 C 72 57.100, 72.128 56.985, 73.616 58.473 C 74.505 59.362, 75.742 59.921, 76.366 59.716 C 77.839 59.232, 78.470 55, 77.070 55 C 75.647 55, 75.579 14.378, 77 13.500 C 78.566 12.532, 78.171 9.003, 76.422 8.332 C 74.150 7.460, 71.199 10.599, 72.793 12.193 C 74.330 13.730, 74.525 54.557, 73 55.500 C 72.347 55.904, 72 49.549, 72 37.174 C 72 18.277, 71.994 18.226, 69.598 16.656 C 67.802 15.480, 67.234 14.261, 67.348 11.827 C 67.515 8.251, 65.203 6.846, 63.174 9.291 M 45.200 21.200 C 44.540 21.860, 44 22.969, 44 23.665 C 44 25.530, 47.333 27.034, 49.054 25.946 C 49.849 25.442, 51.737 25.024, 53.250 25.015 C 55.021 25.005, 56 24.466, 56 23.500 C 56 22.507, 55.007 22, 53.059 22 C 51.441 22, 49.840 21.550, 49.500 21 C 48.663 19.646, 46.660 19.740, 45.200 21.200 M 103.750 21.745 C 97.188 21.995, 95 22.419, 95 23.442 C 95 25.321, 113.859 26.193, 115.868 24.408 C 117.544 22.919, 116.500 20.925, 114.191 21.206 C 113.261 21.319, 108.563 21.561, 103.750 21.745 M 95 29 C 95 29.556, 97.667 30, 101 30 C 104.333 30, 107 30.444, 107 31 C 107 31.556, 104.333 32, 101 32 C 97.667 32, 95 32.444, 95 33 C 95 33.595, 98.767 34, 104.300 34 C 109.415 34, 114.065 34.465, 114.633 35.033 C 116.097 36.497, 119 35.130, 119 32.976 C 119 30.727, 117.435 30.125, 113.250 30.765 C 110.709 31.153, 110 30.906, 110 29.631 C 110 28.268, 108.767 28, 102.500 28 C 98.167 28, 95 28.422, 95 29 M 46.500 34 C 44.919 35.650, 42.796 37, 41.782 37 C 39.252 37, 38.382 39.810, 40.313 41.742 C 41.621 43.049, 42.172 43.102, 43.450 42.042 C 44.302 41.334, 45 40.214, 45 39.552 C 45 37.251, 49.576 34, 52.814 34 C 54.979 34, 56 33.519, 56 32.500 C 56 29.661, 49.705 30.655, 46.500 34 M 51.924 37.590 C 49.910 39.742, 49.500 41.206, 49.500 46.238 C 49.500 52.267, 49.484 52.301, 46 53.487 C 42.638 54.631, 42.500 54.872, 42.500 59.579 C 42.500 64.239, 42.647 64.506, 45.490 64.998 C 49.526 65.697, 51.762 70.143, 50.182 74.328 C 49.163 77.029, 49.357 77.557, 52.541 80.741 C 55.097 83.297, 56.469 84.001, 57.755 83.414 C 58.715 82.976, 61.188 82.694, 63.250 82.786 C 65.313 82.879, 67 82.571, 67 82.103 C 67 81.635, 65.401 79.507, 63.447 77.376 C 61.492 75.244, 58.507 71.342, 56.813 68.705 C 53.902 64.172, 53.770 63.543, 54.409 57.205 C 55.946 41.958, 56.226 35, 55.303 35 C 54.778 35, 53.258 36.166, 51.924 37.590 M 95.397 43.750 C 95.749 48.563, 96.298 54.861, 96.615 57.748 C 97.114 62.281, 96.815 63.640, 94.416 67.733 C 92.889 70.339, 89.641 74.608, 87.198 77.220 C 83.391 81.290, 83.007 82.065, 84.514 82.644 C 85.481 83.015, 86.998 82.860, 87.886 82.300 C 89.043 81.570, 90.138 81.700, 91.753 82.758 C 93.826 84.116, 94.292 84.015, 97.598 81.493 C 101.026 78.878, 101.160 78.551, 100.524 74.310 C 99.772 69.295, 101.755 65, 104.823 65 C 107.461 65, 109.002 62.983, 108.985 59.550 C 108.965 55.625, 108.174 54.524, 104.500 53.303 C 101.606 52.342, 101.500 52.092, 101.500 46.243 C 101.500 41.205, 101.090 39.742, 99.076 37.590 C 97.742 36.166, 96.225 35, 95.703 35 C 95.129 35, 95.008 38.452, 95.397 43.750 M 69 71 C 69 72.795, 69.667 73, 75.500 73 C 81.333 73, 82 72.795, 82 71 C 82 69.205, 81.333 69, 75.500 69 C 69.667 69, 69 69.205, 69 71 M 71.250 77.250 C 71.487 77.960, 73.322 78.500, 75.500 78.500 C 77.678 78.500, 79.513 77.960, 79.750 77.250 C 80.044 76.369, 78.789 76, 75.500 76 C 72.211 76, 70.956 76.369, 71.250 77.250 M 71 88 C 71 89.704, 71.667 90, 75.500 90 C 79.333 90, 80 89.704, 80 88 C 80 86.296, 79.333 86, 75.500 86 C 71.667 86, 71 86.296, 71 88 M 73.035 92.750 C 73.055 93.162, 73.646 94.537, 74.350 95.805 L 75.629 98.110 76.815 95.508 C 78.394 92.041, 78.379 92, 75.500 92 C 74.125 92, 73.016 92.338, 73.035 92.750 M 14.881 103.750 C 12.421 110.078, 8 122.168, 8 122.568 C 8 123.793, 14.137 122.805, 14.638 121.500 C 15.439 119.414, 22.606 119.474, 23.783 121.576 C 24.358 122.604, 25.712 123.038, 27.678 122.826 L 30.691 122.500 26.690 111.750 C 22.690 101.002, 22.689 101, 19.320 101 C 16.570 101, 15.754 101.506, 14.881 103.750 M 33 112 L 33 123 41.500 123 C 49.900 123, 50 122.971, 50 120.500 C 50 118.167, 49.667 118, 45 118 L 40 118 40 109.500 L 40 101 36.500 101 L 33 101 33 112 M 53 112 L 53 123 56.500 123 L 60 123 60 112 L 60 101 56.500 101 L 53 101 53 112 M 79.500 102.161 C 75.705 104.248, 74.045 107.328, 74.022 112.327 C 74.004 116.345, 74.490 117.644, 76.923 120.077 C 79.375 122.529, 80.653 123, 84.850 123 C 89.082 123, 90.179 122.588, 91.954 120.331 C 94.488 117.110, 94.209 115.834, 90.773 114.915 C 88.723 114.366, 88.072 114.618, 87.681 116.110 C 86.987 118.767, 82.402 118.620, 80.944 115.895 C 79.407 113.024, 80.608 107.259, 82.894 106.534 C 85.068 105.844, 88 106.809, 88 108.215 C 88 108.808, 89.121 108.935, 90.748 108.527 C 94.169 107.669, 94.186 107.649, 93.402 105.606 C 91.950 101.821, 83.793 99.800, 79.500 102.161 M 97 112 L 97 123 100.500 123 L 104 123 104.011 117.250 L 104.023 111.500 107.761 117.237 C 111.039 122.265, 111.901 122.975, 114.750 122.987 L 118 123 118 112 L 118 101 115 101 L 112 101 112 107.215 L 112 113.430 107.750 107.245 C 104.029 101.830, 103.096 101.056, 100.250 101.030 L 97 101 97 112 M 127.500 102.161 C 123.705 104.248, 122.045 107.328, 122.022 112.327 C 122.004 116.345, 122.490 117.644, 124.923 120.077 C 127.375 122.529, 128.653 123, 132.850 123 C 137.082 123, 138.179 122.588, 139.954 120.331 C 142.488 117.110, 142.209 115.834, 138.773 114.915 C 136.700 114.360, 136.072 114.616, 135.662 116.184 C 135.277 117.658, 134.450 118.067, 132.343 117.824 C 128.555 117.387, 126.906 113.039, 129.067 109.189 C 130.874 105.971, 133.195 105.338, 135.337 107.480 C 136.381 108.524, 137.777 108.843, 139.458 108.421 C 140.856 108.070, 142 107.644, 142 107.473 C 142 102.721, 132.686 99.309, 127.500 102.161 M 18.110 110.315 C 16.562 114.240, 16.706 115, 19 115 C 21.126 115, 21.495 113.050, 20.040 109.500 C 19.278 107.642, 19.142 107.699, 18.110 110.315 M 4.196 133.111 C 4.509 138.497, 6.657 141.026, 7.661 137.190 C 7.951 136.079, 9.300 134.891, 10.658 134.550 C 12.639 134.053, 13.064 133.394, 12.813 131.215 C 12.533 128.789, 12.042 128.467, 8.196 128.190 L 3.891 127.880 4.196 133.111 M 15.198 133.171 C 15.374 136.186, 16.021 138.515, 16.750 138.755 C 17.482 138.996, 18 138.303, 18 137.083 C 18 134.439, 19.606 134.395, 21 137 C 21.589 138.100, 22.730 139, 23.535 139 C 25.282 139, 25.344 138.511, 23.931 135.870 C 23.152 134.416, 23.185 133.482, 24.053 132.436 C 25.951 130.149, 23.418 128, 18.825 128 L 14.895 128 15.198 133.171 M 27 133.500 C 27 137.722, 27.348 139, 28.500 139 C 29.652 139, 30 137.722, 30 133.500 C 30 129.278, 29.652 128, 28.500 128 C 27.348 128, 27 129.278, 27 133.500 M 32.763 132.250 C 35.818 140.350, 37.260 140.846, 40.027 134.750 C 42.341 129.653, 42.476 128, 40.579 128 C 39.798 128, 38.862 129.350, 38.500 131 C 38.138 132.650, 37.463 134, 37 134 C 36.537 134, 35.862 132.650, 35.500 131 C 35.059 128.992, 34.232 128, 33.001 128 C 31.251 128, 31.240 128.209, 32.763 132.250 M 44.569 131.250 C 41.959 137.631, 41.758 139, 43.433 139 C 44.295 139, 45 138.550, 45 138 C 45 137.450, 46.125 137, 47.500 137 C 48.875 137, 50 137.450, 50 138 C 50 138.550, 50.675 139, 51.500 139 C 53.381 139, 53.374 138.820, 51.265 132.884 C 49.167 126.976, 46.575 126.344, 44.569 131.250 M 53 129.500 C 53 130.325, 53.675 131, 54.500 131 C 55.583 131, 56 132.111, 56 135 C 56 137.889, 56.417 139, 57.500 139 C 58.583 139, 59 137.889, 59 135 C 59 132.111, 59.417 131, 60.500 131 C 61.325 131, 62 130.325, 62 129.500 C 62 128.389, 60.833 128, 57.500 128 C 54.167 128, 53 128.389, 53 129.500 M 64 133.557 L 64 139.115 68.172 138.807 C 73.121 138.443, 74.784 136, 70.083 136 C 68.388 136, 67 135.550, 67 135 C 67 134.450, 68.125 134, 69.500 134 C 70.875 134, 72 133.550, 72 133 C 72 132.450, 70.875 132, 69.500 132 C 68.125 132, 67 131.550, 67 131 C 67 130.450, 68.350 130, 70 130 C 71.650 130, 73 129.550, 73 129 C 73 128.450, 70.975 128, 68.500 128 L 64 128 64 133.557 M 79.198 133.250 L 79.500 138.500 83.417 138.500 C 85.661 138.500, 87.511 137.966, 87.750 137.250 C 88.012 136.465, 87.206 136, 85.583 136 C 83.236 136, 83 135.634, 83 132 C 83 128.633, 82.675 128, 80.948 128 C 79.100 128, 78.926 128.524, 79.198 133.250 M 89 133.500 C 89 138.333, 89.242 139, 91 139 C 92.758 139, 93 138.333, 93 133.500 C 93 128.667, 92.758 128, 91 128 C 89.242 128, 89 128.667, 89 133.500 M 95 133.514 C 95 137.589, 95.349 139.052, 96.250 138.755 C 96.938 138.529, 97.681 137.254, 97.903 135.922 L 98.305 133.500 98.930 135.926 C 99.895 139.671, 101.921 139.623, 102.716 135.836 L 103.415 132.500 103.968 135.500 C 104.846 140.273, 106.472 138.982, 106.802 133.250 C 107.092 128.209, 107.003 128, 104.552 128 C 102.693 128, 102 128.527, 102 129.941 C 102 132.757, 100.201 133.438, 99.821 130.765 C 99.614 129.304, 98.701 128.387, 97.250 128.180 C 95.144 127.881, 95 128.224, 95 133.514 M 109 133.500 C 109 137.722, 109.348 139, 110.500 139 C 111.652 139, 112 137.722, 112 133.500 C 112 129.278, 111.652 128, 110.500 128 C 109.348 128, 109 129.278, 109 133.500 M 114 129.500 C 114 130.325, 114.648 131, 115.440 131 C 116.375 131, 116.988 132.287, 117.190 134.673 C 117.635 139.948, 120 140.294, 120 135.083 C 120 131.667, 120.327 131, 122 131 C 123.111 131, 124 130.333, 124 129.500 C 124 128.367, 122.778 128, 119 128 C 115.222 128, 114 128.367, 114 129.500 M 125.198 133.250 L 125.500 138.500 129.750 138.807 C 133.062 139.047, 134 138.771, 134 137.557 C 134 136.487, 133.044 136, 130.941 136 C 129.156 136, 128.139 135.583, 128.500 135 C 128.840 134.450, 130.216 134, 131.559 134 C 132.902 134, 134 133.550, 134 133 C 134 132.450, 132.623 132, 130.941 132 C 129.156 132, 128.139 131.583, 128.500 131 C 128.840 130.450, 130.216 130, 131.559 130 C 132.902 130, 134 129.550, 134 129 C 134 128.450, 131.951 128, 129.448 128 L 124.895 128 125.198 133.250 M 136 133.631 L 136 139.262 139.664 138.667 C 144.129 137.943, 145.250 136.921, 145.250 133.578 C 145.250 129.891, 143.259 128, 139.378 128 L 136 128 136 133.631 M 139 133.500 C 139 135.056, 139.567 136, 140.500 136 C 141.433 136, 142 135.056, 142 133.500 C 142 131.944, 141.433 131, 140.500 131 C 139.567 131, 139 131.944, 139 133.500" stroke="none" fill="black" fill-rule="evenodd"/>
</svg>